# xmcd
#
# Track frame offsets: 
#        150
#        16997
#        35198
#        57210
#        89860
#        105644
#        123593
#        140453
#        169408
#        185134
#        201581
#
# Disc length: 2876 seconds
#
# Revision: 1
# Processed by: cddbd v1.5.2PL0 Copyright (c) Steve Scherf et al.
# Submitted via: ExactAudioCopy v0.99pb3
#
DISCID=ae0b3a0b
DTITLE=Kenny Blue Ray - Soulful Blues
DYEAR=2001
DGENRE=Blues
TTITLE0=A Man Needs His Loving
TTITLE1=Mean Old World
TTITLE2=Road Block
TTITLE3=Voodoo Chile
TTITLE4=Lonesome
TTITLE5=Hot 'N Cold
TTITLE6=Who's Been Talkin'
TTITLE7=Blue Monday
TTITLE8=Stop Thinkin' Take
TTITLE9=Home At Last
TTITLE10=COD
EXTD=
EXTT0=
EXTT1=
EXTT2=
EXTT3=
EXTT4=
EXTT5=
EXTT6=
EXTT7=
EXTT8=
EXTT9=
EXTT10=
PLAYORDER=
